<svg width="79" height="79" viewBox="0 0 79 79" fill="none" xmlns="http://www.w3.org/2000/svg">
<path d="M59.25 0H19.75C8.84238 0 0 8.84238 0 19.75V59.25C0 70.1576 8.84238 79 19.75 79H59.25C70.1576 79 79 70.1576 79 59.25V19.75C79 8.84238 70.1576 0 59.25 0Z" fill="black"/>
<path d="M56.169 27.6698H52.9695V33.18H47.1038V12.4425H56.5838C58.46 12.4425 60.0894 12.7585 61.4719 13.3905C62.8544 14.0028 63.9209 14.8915 64.6714 16.0568C65.4219 17.2023 65.7971 18.5551 65.7971 20.1154C65.7971 21.6164 65.4416 22.9298 64.7306 24.0555C64.0394 25.1615 63.042 26.0305 61.7385 26.6625L66.2119 33.18H59.9314L56.169 27.6698ZM59.8721 20.1154C59.8721 19.1476 59.566 18.3971 58.9538 17.8639C58.3415 17.3306 57.433 17.064 56.2283 17.064H52.9695V23.1371H56.2283C57.433 23.1371 58.3415 22.8804 58.9538 22.3669C59.566 21.8336 59.8721 21.0831 59.8721 20.1154Z" fill="white"/>
<path d="M47.4442 44.24H53.701V61.3988H64.2554V66.36H47.4442V44.24Z" fill="white"/>
<path d="M25.0752 19.355H14.4102V59.645H25.0752V19.355Z" fill="white"/>
<path d="M36.1352 35.55H14.4102V43.845H36.1352V35.55Z" fill="white"/>
<path d="M39.6902 58.46H14.4102V66.36H39.6902V58.46Z" fill="white"/>
<path d="M39.6902 12.64H14.4102V20.54H39.6902V12.64Z" fill="white"/>
</svg>
